<?xml version="1.0" encoding="utf-8"?>
<!-- Generator: Adobe Illustrator 16.0.3, SVG Export Plug-In . SVG Version: 6.00 Build 0)  -->
<!DOCTYPE svg PUBLIC "-//W3C//DTD SVG 1.1//EN" "http://www.w3.org/Graphics/SVG/1.1/DTD/svg11.dtd">
<svg version="1.1" id="Layer_1" xmlns="http://www.w3.org/2000/svg" xmlns:xlink="http://www.w3.org/1999/xlink" x="0px" y="0px"
	 width="856.834px" height="99.281px" viewBox="0 0 856.834 99.281" enable-background="new 0 0 856.834 99.281"
	 xml:space="preserve">
<g>
	<path d="M41.861,95.44c-6.912,0-13.526-1.174-19.84-3.52c-6.316-2.346-12.16-5.952-17.536-10.816l9.472-11.264
		c4.352,3.756,8.746,6.636,13.184,8.64c4.436,2.006,9.472,3.008,15.104,3.008c4.864,0,8.724-1.024,11.584-3.072
		c2.858-2.048,4.288-4.778,4.288-8.192v-0.256c0-1.62-0.278-3.05-0.834-4.288c-0.556-1.236-1.584-2.41-3.08-3.52
		c-1.498-1.108-3.552-2.132-6.16-3.072c-2.61-0.938-6.01-1.876-10.202-2.816c-4.792-1.108-9.048-2.368-12.768-3.776
		c-3.722-1.408-6.844-3.114-9.368-5.12c-2.524-2.004-4.45-4.458-5.776-7.36c-1.326-2.9-1.988-6.4-1.988-10.496v-0.256
		c0-3.84,0.76-7.36,2.284-10.56s3.618-5.93,6.284-8.192c2.666-2.26,5.872-4.032,9.62-5.312c3.746-1.28,7.838-1.92,12.276-1.92
		c6.57,0,12.48,0.96,17.728,2.88c5.248,1.92,10.176,4.716,14.784,8.384l-8.448,11.904c-4.096-2.986-8.15-5.268-12.16-6.848
		c-4.012-1.578-8.064-2.368-12.16-2.368c-4.608,0-8.192,1.024-10.752,3.072s-3.84,4.566-3.84,7.552v0.256
		c0,1.708,0.298,3.222,0.898,4.544c0.598,1.324,1.688,2.518,3.272,3.584c1.582,1.068,3.764,2.07,6.544,3.008
		c2.78,0.94,6.31,1.92,10.588,2.944c4.704,1.196,8.876,2.518,12.512,3.968c3.636,1.452,6.65,3.222,9.046,5.312
		c2.396,2.092,4.214,4.524,5.454,7.296c1.24,2.774,1.862,5.996,1.862,9.664v0.256c0,4.182-0.784,7.936-2.35,11.264
		c-1.566,3.328-3.746,6.144-6.538,8.448c-2.792,2.304-6.148,4.054-10.066,5.248C50.859,94.842,46.553,95.44,41.861,95.44z"/>
	<path d="M92.293,4.56h35.328c5.204,0,9.92,0.704,14.144,2.112c4.224,1.408,7.808,3.436,10.752,6.08
		c2.944,2.646,5.204,5.804,6.784,9.472c1.578,3.67,2.368,7.766,2.368,12.288v0.256c0,5.036-0.942,9.452-2.824,13.248
		c-1.882,3.798-4.448,6.976-7.698,9.536s-7.056,4.502-11.418,5.824c-4.364,1.324-9.026,1.984-13.986,1.984h-17.834v28.8H92.293V4.56
		z M126.275,51.152c5.992,0,10.724-1.498,14.192-4.498c3.468-2.998,5.202-6.854,5.202-11.566v-0.256
		c0-5.312-1.756-9.316-5.266-12.016c-3.512-2.698-8.22-4.048-14.128-4.048h-18.366v32.384H126.275z"/>
	<path d="M177.797,4.56h15.616v75.392h47.104V94.16h-62.72V4.56z"/>
	<path d="M257.923,4.56h15.616v89.6h-15.616V4.56z"/>
	<path d="M319.618,19.152h-28.416V4.56h72.704v14.592H335.49V94.16h-15.872V19.152z"/>
	<path d="M450.431,95.44c-6.912,0-13.526-1.174-19.84-3.52c-6.316-2.346-12.16-5.952-17.536-10.816l9.472-11.264
		c4.352,3.756,8.746,6.636,13.184,8.64c4.436,2.006,9.472,3.008,15.104,3.008c4.864,0,8.724-1.024,11.584-3.072
		c2.858-2.048,4.288-4.778,4.288-8.192v-0.256c0-1.62-0.278-3.05-0.834-4.288c-0.556-1.236-1.584-2.41-3.08-3.52
		c-1.498-1.108-3.552-2.132-6.16-3.072c-2.61-0.938-6.01-1.876-10.202-2.816c-4.792-1.108-9.048-2.368-12.768-3.776
		c-3.722-1.408-6.844-3.114-9.368-5.12c-2.524-2.004-4.45-4.458-5.776-7.36c-1.326-2.9-1.988-6.4-1.988-10.496v-0.256
		c0-3.84,0.76-7.36,2.284-10.56s3.618-5.93,6.284-8.192c2.666-2.26,5.872-4.032,9.62-5.312c3.746-1.28,7.838-1.92,12.276-1.92
		c6.57,0,12.48,0.96,17.728,2.88c5.248,1.92,10.176,4.716,14.784,8.384l-8.448,11.904c-4.096-2.986-8.15-5.268-12.16-6.848
		c-4.012-1.578-8.064-2.368-12.16-2.368c-4.608,0-8.192,1.024-10.752,3.072s-3.84,4.566-3.84,7.552v0.256
		c0,1.708,0.298,3.222,0.898,4.544c0.598,1.324,1.688,2.518,3.272,3.584c1.582,1.068,3.764,2.07,6.544,3.008
		c2.78,0.94,6.31,1.92,10.588,2.944c4.704,1.196,8.876,2.518,12.512,3.968c3.636,1.452,6.65,3.222,9.046,5.312
		c2.396,2.092,4.214,4.524,5.454,7.296c1.24,2.774,1.862,5.996,1.862,9.664v0.256c0,4.182-0.784,7.936-2.35,11.264
		c-1.566,3.328-3.746,6.144-6.538,8.448c-2.792,2.304-6.148,4.054-10.066,5.248C459.429,94.842,455.124,95.44,450.431,95.44z"/>
	<path d="M500.863,4.56h66.304v14.208h-50.688v23.04h44.928v14.208h-44.928v23.936h51.328V94.16h-66.944V4.56z"/>
	<path d="M578.943,4.56h17.408l27.008,68.864l26.88-68.864h17.024L630.015,94.8h-13.824L578.943,4.56z"/>
	<path d="M682.623,4.56h66.305v14.208h-50.688v23.04h44.929v14.208h-44.929v23.936h51.328V94.16h-66.944V4.56z"/>
	<path d="M768.382,4.56h14.562l47.902,61.952V4.56h15.615v89.6h-13.157l-49.307-63.744V94.16h-15.616V4.56z"/>
</g>
<g>
</g>
<g>
</g>
<g>
</g>
<g>
</g>
<g>
</g>
<g>
</g>
</svg>
